<svg width="312" height="228" viewBox="0 0 312 228" fill="none" xmlns="http://www.w3.org/2000/svg">
<path d="M121.448 220.865C121.71 220.605 122.047 220.357 122.456 220.121L28.6834 151.533L2 180.354L39.2259 192.979L121.448 220.865Z" fill="#A0B1AF"/>
<path d="M150.199 220.121C150.608 220.357 150.897 220.605 151.159 220.865L271.899 144.926L304.909 105.991L267.667 122.085L150.199 220.121Z" fill="#CED7D6"/>
<path d="M205.685 36.1371L228.99 14.5396C222.763 11.7527 216.275 9.37893 209.569 7.45729C202.577 5.45348 195.348 3.94128 187.93 2.96485C181.406 2.1062 174.737 1.66187 167.955 1.66187C165.16 1.66187 162.385 1.73729 159.632 1.88603C152.637 2.26385 145.781 3.11477 139.102 4.40437C127.81 6.5845 117.022 10.0183 106.919 14.5396L93.6026 23.6428C102.306 20.507 111.402 18.2909 120.791 17.1021C126.068 16.434 131.438 16.0904 136.882 16.0904C145.802 16.0904 154.521 17.0127 162.961 18.7733C170.211 20.2857 177.256 22.4168 184.046 25.1134C191.598 28.1128 198.834 31.8118 205.685 36.1371Z" fill="#D8DFDE"/>
<path d="M244.782 73.2496L270.851 43.2826C268.388 40.8097 265.821 38.4259 263.155 36.1371C260.207 33.6057 257.139 31.1905 253.959 28.8994L232.874 50.6839L228.99 54.6967C231.754 57.4324 234.413 60.2897 236.958 63.2606C239.701 66.4616 242.312 69.7946 244.782 73.2496Z" fill="#D8DFDE"/>
<path d="M271.899 144.926C272.446 149.951 272.755 155.054 272.814 160.222C272.821 160.827 272.824 161.434 272.824 162.041C272.824 165.586 272.659 169.102 272.427 172.584L295.594 143.727L307.226 129.299C307.226 125.732 307.066 122.2 306.753 118.708C306.367 114.405 305.749 110.162 304.909 105.991L271.899 144.926Z" fill="#D8DFDE"/>
<path d="M262.439 105.991L266.207 102.662L295.101 77.1342C293.432 73.7225 291.604 70.3902 289.626 67.1452C287.415 63.5178 285.017 59.9995 282.443 56.6013L266.207 70.4997L251.326 83.2386C253.478 86.8333 255.487 90.536 257.344 94.3374C259.196 98.127 260.897 102.015 262.439 105.991Z" fill="#D8DFDE"/>
<path d="M13.7838 224.049L121.448 220.865H12.4332C12.6196 221.318 12.808 221.771 12.9986 222.222C13.2565 222.833 13.5183 223.442 13.7838 224.049Z" fill="#738C89"/>
<path d="M272.824 162.041C272.824 161.434 272.821 160.827 272.814 160.222C272.755 155.054 272.446 149.951 271.899 144.926L151.159 220.865L272.427 172.584C272.659 169.102 272.824 165.586 272.824 162.041Z" fill="#738C89"/>
<path d="M150.199 220.121L239.517 129.299L262.439 105.991C260.897 102.015 259.196 98.127 257.344 94.3374C255.487 90.536 253.478 86.8333 251.326 83.2386L161.102 203.19L150.199 220.121Z" fill="#738C89"/>
<path d="M279.382 52.7167L249.273 79.9089L174.66 182.137L161.102 203.19L251.326 83.2386L266.207 70.4997L279.382 52.7167Z" fill="#D8DFDE"/>
<path d="M270.851 43.2826L244.782 73.2496L174.66 182.137L249.273 79.9089L270.851 43.2826Z" fill="#D8DFDE"/>
<path d="M228.99 54.6967L147.688 219.092L153.757 210.776L174.66 182.137L244.782 73.2496C242.312 69.7946 239.701 66.4616 236.958 63.2606C234.413 60.2897 231.754 57.4324 228.99 54.6967Z" fill="#738C89"/>
<path d="M147.688 219.092L228.99 54.6967L232.874 50.6839L240.642 20.4033L223.643 36.1371L215.923 43.2826L147.688 219.092Z" fill="#D8DFDE"/>
<path d="M205.685 36.1371L146.151 218.694C146.7 218.817 147.212 218.95 147.688 219.092L215.923 43.2826L223.643 36.1371L228.99 14.5396L205.685 36.1371Z" fill="#D8DFDE"/>
<path d="M83.607 27.7242C82.736 28.1229 81.8698 28.5311 81.0083 28.9486L68.0788 36.1371L69.8404 41.6178L73.4076 52.7167L126.526 218.694C127.774 218.416 129.184 218.192 130.779 218.036C131.655 217.95 132.581 217.885 133.553 217.842C134.44 217.803 135.366 217.783 136.327 217.783C137.288 217.783 138.214 217.803 139.102 217.842C140.073 217.885 140.999 217.95 141.876 218.036C143.471 218.192 144.903 218.416 146.151 218.694L205.685 36.1371C198.834 31.8118 191.598 28.1128 184.046 25.1134C177.256 22.4168 170.211 20.2857 162.961 18.7733C154.521 17.0127 145.802 16.0904 136.882 16.0904C131.438 16.0904 126.068 16.434 120.791 17.1021C111.402 18.2909 102.306 20.507 93.6026 23.6428C90.209 24.8655 86.8751 26.2281 83.607 27.7242Z" fill="#738C89"/>
<path d="M123.81 219.486L11.7611 104.881C10.8909 107.074 10.0693 109.294 9.29771 111.541L6.44732 122.362L3.59694 133.183L28.6834 151.533L122.456 220.121C122.844 219.897 123.296 219.684 123.81 219.486Z" fill="#738C89"/>
<path d="M12.4332 220.865H121.448L39.2259 192.979L12.4332 220.865Z" fill="#4C5D5B"/>
<path d="M261.047 221.436L306.145 144.926C306.198 144.527 306.249 144.127 306.298 143.727H295.594L272.427 172.584L151.159 220.865L259.507 224.049L261.047 221.436Z" fill="#4C5D5B"/>
<path d="M306.145 144.926L261.047 221.436L259.507 224.049L151.159 220.865C151.591 221.293 151.863 221.749 151.863 222.222L258.015 226.662H261.095L310 143.727H306.298C306.249 144.127 306.198 144.527 306.145 144.926Z" fill="#27302F"/>
<path d="M14.9576 226.662L120.791 222.222C120.791 221.749 121.016 221.293 121.448 220.865L13.7838 224.049C13.5183 223.442 13.2565 222.833 12.9986 222.222L10.9278 226.662H14.9576Z" fill="#27302F"/>
<path d="M123.81 219.486C124.166 219.348 124.575 219.216 124.99 219.092L42.9401 88.2331L31.4577 69.9199L27.0188 76.8567L22.5799 83.7935L30.7484 94.7429L123.81 219.486Z" fill="#738C89"/>
<path d="M124.99 219.092C125.465 218.95 125.978 218.817 126.526 218.694L52.4134 61.3262L31.4577 69.9199L42.9401 88.2331L124.99 219.092Z" fill="#A0B1AF"/>
<path d="M11.7611 104.881L123.81 219.486L30.7484 94.7429L11.7611 104.881Z" fill="#A0B1AF"/>
<path d="M126.526 218.694L73.4076 52.7167L69.8404 41.6178L48.3588 52.7167L52.4134 61.3262L126.526 218.694Z" fill="#A0B1AF"/>
<path d="M136.327 226.662C145.827 226.662 151.863 224.674 151.863 222.222C151.863 221.749 151.591 221.293 151.159 220.865C150.897 220.605 150.608 220.357 150.199 220.121C149.811 219.897 149.358 219.684 148.845 219.486C148.488 219.348 148.102 219.216 147.688 219.092C147.212 218.95 146.7 218.817 146.151 218.694C144.903 218.416 143.471 218.192 141.876 218.036C140.999 217.95 140.073 217.885 139.102 217.842C138.214 217.803 137.288 217.783 136.327 217.783C135.366 217.783 134.44 217.803 133.553 217.842C132.581 217.885 131.655 217.95 130.779 218.036C129.184 218.192 127.774 218.416 126.526 218.694C125.978 218.817 125.465 218.95 124.99 219.092C124.575 219.216 124.166 219.348 123.81 219.486C123.296 219.684 122.844 219.897 122.456 220.121C122.047 220.357 121.71 220.605 121.448 220.865C121.016 221.293 120.791 221.749 120.791 222.222C120.791 224.674 126.827 226.662 136.327 226.662Z" fill="#121616"/>
<path d="M150.199 220.121L267.667 122.085L300.463 89.8979L239.517 129.299L150.199 220.121Z" fill="#A0B1AF"/>
<path d="M151.863 222.222L258.015 226.662H261.095L310 143.727H306.298M151.863 222.222C151.863 224.674 145.827 226.662 136.327 226.662C126.827 226.662 120.791 224.674 120.791 222.222M151.863 222.222C151.863 221.749 151.591 221.293 151.159 220.865M136.882 16.0904C131.438 16.0904 126.068 16.434 120.791 17.1021M136.882 16.0904C145.802 16.0904 154.521 17.0127 162.961 18.7733M136.882 16.0904L136.771 56.6013M136.882 16.0904L154.17 5.29603M120.791 222.222L14.9576 226.662H10.9278L12.9986 222.222M120.791 222.222C120.791 221.749 121.016 221.293 121.448 220.865M83.607 27.7242C84.1613 27.337 84.7189 26.9535 85.2797 26.5738M83.607 27.7242C86.8751 26.2281 90.209 24.8655 93.6026 23.6428M83.607 27.7242C82.736 28.1229 81.8698 28.5311 81.0083 28.9486M136.327 217.783C135.366 217.783 134.44 217.803 133.553 217.842M136.327 217.783C137.288 217.783 138.214 217.803 139.102 217.842M136.327 217.783L136.679 89.8979M126.526 218.694C125.978 218.817 125.465 218.95 124.99 219.092M126.526 218.694L73.4076 52.7167L69.8404 41.6178M126.526 218.694C127.774 218.416 129.184 218.192 130.779 218.036M126.526 218.694L52.4134 61.3262M68.0788 36.1371L81.0083 28.9486M68.0788 36.1371C72.2513 33.5032 76.5663 31.1015 81.0083 28.9486M68.0788 36.1371L69.8404 41.6178M146.151 218.694L205.685 36.1371M146.151 218.694C146.7 218.817 147.212 218.95 147.688 219.092M146.151 218.694C144.903 218.416 143.471 218.192 141.876 218.036M205.685 36.1371L228.99 14.5396M205.685 36.1371C198.834 31.8118 191.598 28.1128 184.046 25.1134M147.688 219.092L228.99 54.6967M147.688 219.092C148.102 219.216 148.488 219.348 148.845 219.486M147.688 219.092L215.923 43.2826L223.643 36.1371M147.688 219.092L153.757 210.776M228.99 54.6967L232.874 50.6839M228.99 54.6967C231.754 57.4324 234.413 60.2897 236.958 63.2606M150.199 220.121C150.608 220.357 150.897 220.605 151.159 220.865M150.199 220.121L267.667 122.085M150.199 220.121C149.811 219.897 149.358 219.684 148.845 219.486M150.199 220.121L244.782 109.085M150.199 220.121L161.102 203.19M150.199 220.121L239.517 129.299M244.782 73.2496L270.851 43.2826M244.782 73.2496C242.312 69.7946 239.701 66.4616 236.958 63.2606M244.782 73.2496L174.66 182.137M151.159 220.865L271.899 144.926M151.159 220.865L259.507 224.049L261.047 221.436L306.145 144.926C306.198 144.527 306.249 144.127 306.298 143.727M151.159 220.865L272.427 172.584M151.159 220.865L230.654 181.238M271.899 144.926L304.909 105.991M271.899 144.926C272.446 149.951 272.755 155.054 272.814 160.222M124.99 219.092C124.575 219.216 124.166 219.348 123.81 219.486M124.99 219.092L42.9401 88.2331L31.4577 69.9199M31.4577 69.9199L27.0188 76.8567M31.4577 69.9199L52.4134 61.3262M123.81 219.486L11.7611 104.881M123.81 219.486C123.296 219.684 122.844 219.897 122.456 220.121M123.81 219.486L48.3588 157.046M123.81 219.486L30.7484 94.7429M123.81 219.486L41.5787 98.3119M11.7611 104.881C10.8909 107.074 10.0693 109.294 9.29771 111.541L6.44732 122.362M11.7611 104.881L30.7484 94.7429M122.456 220.121C122.047 220.357 121.71 220.605 121.448 220.865M122.456 220.121L28.6834 151.533M121.448 220.865L13.7838 224.049C13.5183 223.442 13.2565 222.833 12.9986 222.222M121.448 220.865H12.4332M121.448 220.865L39.2259 192.979M85.2797 26.5738C92.0497 21.9898 99.289 17.9545 106.919 14.5396M85.2797 26.5738L81.0083 28.9486M228.99 14.5396L223.643 36.1371M228.99 14.5396C222.763 11.7527 216.275 9.37893 209.569 7.45729M270.851 43.2826L249.273 79.9089M270.851 43.2826C268.388 40.8097 265.821 38.4259 263.155 36.1371M304.909 105.991L267.667 122.085M304.909 105.991C305.749 110.162 306.367 114.405 306.753 118.708M267.667 122.085L300.463 89.8979L239.517 129.299M262.439 105.991L266.207 102.662L295.101 77.1342C293.432 73.7225 291.604 70.3902 289.626 67.1452M262.439 105.991C260.897 102.015 259.196 98.127 257.344 94.3374M262.439 105.991L239.517 129.299M306.298 143.727H295.594M12.9986 222.222C12.808 221.771 12.6196 221.318 12.4332 220.865M249.273 79.9089L279.382 52.7167L266.207 70.4997M249.273 79.9089L174.66 182.137M251.326 83.2386L266.207 70.4997M251.326 83.2386C253.478 86.8333 255.487 90.536 257.344 94.3374M251.326 83.2386L161.102 203.19M266.207 70.4997L282.443 56.6013C285.017 59.9995 287.415 63.5178 289.626 67.1452M148.845 219.486L161.102 203.19M148.845 219.486L153.757 210.776M12.4332 220.865L39.2259 192.979M39.2259 192.979L2 180.354L28.6834 151.533M28.6834 151.533L3.59694 133.183L6.44732 122.362M272.427 172.584C272.659 169.102 272.824 165.586 272.824 162.041C272.824 161.434 272.821 160.827 272.814 160.222M272.427 172.584L295.594 143.727M295.594 143.727L307.226 129.299C307.226 125.732 307.066 122.2 306.753 118.708M232.874 50.6839L253.959 28.8994C257.139 31.1905 260.207 33.6057 263.155 36.1371M232.874 50.6839L240.642 20.4033L223.643 36.1371M130.779 218.036C131.655 217.95 132.581 217.885 133.553 217.842M130.779 218.036L105.955 88.2331M93.6026 23.6428C102.306 20.507 111.402 18.2909 120.791 17.1021M93.6026 23.6428L106.919 14.5396M93.6026 23.6428L99.5414 54.6967M120.791 17.1021L121.3 25.1134M120.791 17.1021L129.946 10.7533M133.553 217.842L123.181 54.6967M162.961 18.7733C170.211 20.2857 177.256 22.4168 184.046 25.1134M162.961 18.7733L160.223 41.6178M162.961 18.7733L166.615 16.4594L170.27 14.1456M139.102 217.842C140.073 217.885 140.999 217.95 141.876 218.036M139.102 217.842L154.17 92.1177M141.876 218.036L172.068 79.9089M184.046 25.1134L177.579 54.6967M209.569 7.45729C202.577 5.45348 195.348 3.94128 187.93 2.96485M209.569 7.45729L196.807 16.2853M187.93 2.96485C181.406 2.1062 174.737 1.66187 167.955 1.66187C165.16 1.66187 162.385 1.73729 159.632 1.88603C152.637 2.26385 145.781 3.11477 139.102 4.40437C127.81 6.5845 117.022 10.0183 106.919 14.5396M187.93 2.96485L177.579 9.51797M236.958 63.2606L242.05 57.9886M236.958 63.2606L229.133 77.1342M263.155 36.1371L250.057 49.6988M205.685 118.708L153.757 210.776M257.344 94.3374L253.959 98.3119M257.344 94.3374L279.382 75.7746M289.626 67.1452L284.504 71.4599M6.44732 122.362L20.3604 133.876M161.102 203.19L174.66 182.137M174.66 182.137L153.757 210.776M30.7484 94.7429L22.5799 83.7935L27.0188 76.8567M27.0188 76.8567L30.7484 82.3526M69.8404 41.6178L48.3588 52.7167L52.4134 61.3262M272.814 160.222L294.137 134.14M272.814 160.222L262.439 165.394M306.753 118.708L302.303 124.151" stroke="#27302F" stroke-width="2"/>
</svg>
