<svg width="72" height="70" viewBox="0 0 72 70" fill="none" xmlns="http://www.w3.org/2000/svg">
<path d="M21.8571 20.861C21.8571 20.5254 22.145 20.2534 22.5 20.2534H53.3571C53.7122 20.2534 54 20.5254 54 20.861V52.7824C54 53.832 52.6869 54.388 51.8583 53.6891L38.3566 42.3018C38.1127 42.0961 37.7444 42.0961 37.5006 42.3018L23.9989 53.6891C23.1703 54.388 21.8571 53.832 21.8571 52.7824V20.861Z" fill="#204D4A"/>
<path d="M18 16.6076C18 16.272 18.2878 16 18.6429 16H49.5C49.855 16 50.1429 16.272 50.1429 16.6076V47.3758C50.1429 48.4155 48.8513 48.9751 48.0179 48.2965L34.491 37.2813C34.2499 37.0849 33.893 37.0849 33.6518 37.2813L20.1249 48.2965C19.2916 48.9751 18 48.4155 18 47.3758V16.6076Z" fill="#1FA29C"/>
</svg>
